<?xml version="1.0" standalone="no"?>
<!DOCTYPE svg PUBLIC "-//W3C//DTD SVG 20010904//EN"
 "http://www.w3.org/TR/2001/REC-SVG-20010904/DTD/svg10.dtd">
<svg version="1.0" xmlns="http://www.w3.org/2000/svg"
 width="300.000000pt" height="82.000000pt" viewBox="0 0 300.000000 82.000000"
 preserveAspectRatio="xMidYMid meet">
<metadata>
Created by potrace 1.10, written by Peter Selinger 2001-2011
</metadata>
<g transform="translate(0.000000,82.000000) scale(0.100000,-0.100000)"
fill="#000000" stroke="none">
<path d="M510 716 c-132 -35 -230 -160 -230 -291 0 -147 118 -277 272 -300 36
-5 65 -2 119 15 165 50 251 219 195 386 -31 94 -107 161 -213 189 -67 18 -83
18 -143 1z m195 -80 c206 -121 139 -429 -100 -453 -102 -11 -203 47 -246 141
-24 54 -25 148 0 201 23 51 100 120 149 134 60 17 146 7 197 -23z"/>
<path d="M540 511 l0 -41 -41 0 -40 0 3 -47 3 -48 38 3 37 3 0 -41 0 -40 45 0
45 0 0 40 0 41 38 -3 37 -3 3 48 3 47 -40 0 c-39 0 -40 1 -43 38 -3 36 -4 37
-45 40 l-43 3 0 -40z m83 -48 c11 -13 26 -23 33 -23 20 0 5 -35 -19 -45 -12
-6 -26 -20 -32 -32 -13 -30 -28 -29 -46 3 -7 14 -24 30 -36 35 -25 9 -32 39
-10 39 7 0 28 17 47 38 24 27 34 33 38 22 2 -8 14 -25 25 -37z"/>
<path d="M1030 422 l0 -168 88 4 c109 5 148 23 180 83 18 34 23 55 20 95 -8
103 -77 153 -210 154 l-78 0 0 -168z m211 80 c22 -24 29 -42 29 -73 0 -84 -49
-129 -140 -129 l-50 0 0 123 0 122 66 -5 c59 -5 70 -9 95 -38z"/>
<path d="M1557 423 c1 -162 2 -168 22 -171 19 -3 21 1 21 57 l0 61 43 -3 c39
-3 45 -7 81 -60 29 -42 46 -57 63 -57 30 0 29 6 -16 65 l-38 49 34 32 c28 27
33 38 33 78 0 36 -6 52 -29 78 -29 32 -32 33 -123 36 l-93 4 2 -169z m175 105
c29 -14 33 -56 11 -86 -17 -23 -28 -27 -82 -30 l-61 -3 0 69 0 69 58 -5 c31
-2 65 -9 74 -14z"/>
<path d="M2528 420 c3 -170 3 -171 25 -168 21 3 22 7 19 75 -3 64 -2 72 18 83
11 6 35 10 53 8 l32 -3 5 -80 c5 -75 7 -80 29 -83 23 -4 23 -3 20 83 -4 77 -7
89 -28 106 -25 20 -95 26 -106 9 -17 -28 -26 -4 -24 63 2 70 2 72 -22 75 l-24
3 3 -171z"/>
<path d="M1370 354 c0 -104 0 -105 23 -102 20 3 22 9 25 73 3 80 14 98 54 93
30 -5 54 14 43 32 -8 13 -61 13 -86 0 -13 -7 -19 -7 -19 0 0 5 -9 10 -20 10
-19 0 -20 -7 -20 -106z"/>
<path d="M1869 431 c-73 -74 -6 -196 97 -176 33 6 72 40 60 52 -3 4 -21 1 -39
-5 -45 -16 -50 -15 -83 11 l-29 22 80 5 c78 5 80 6 83 33 2 20 -5 35 -27 57
-41 42 -100 42 -142 1z m109 -23 c24 -24 12 -33 -40 -31 -29 1 -55 2 -57 2 -2
1 4 10 14 21 20 22 64 27 83 8z"/>
<path d="M2107 453 c-12 -3 -17 -12 -15 -26 2 -14 9 -20 18 -18 8 3 34 6 58 9
61 6 58 -22 -5 -38 -59 -14 -83 -35 -83 -71 0 -50 57 -73 112 -45 23 12 27 12
32 0 3 -8 12 -14 21 -14 12 0 15 14 15 76 0 72 -10 111 -34 126 -12 8 -89 9
-119 1z m103 -128 c0 -20 -6 -25 -36 -31 -57 -11 -73 25 -20 46 39 16 56 12
56 -15z"/>
<path d="M2354 449 c-25 -13 -54 -60 -54 -89 0 -34 28 -79 61 -96 55 -28 140
4 109 41 -12 14 -15 14 -31 -1 -41 -37 -114 28 -88 78 7 13 17 26 23 30 16 11
64 10 71 -2 9 -15 22 -12 29 7 14 36 -67 57 -120 32z"/>
</g>
</svg>
